<svg width="75" height="75" viewBox="0 0 75 75" fill="none" xmlns="http://www.w3.org/2000/svg">
<path fill-rule="evenodd" clip-rule="evenodd" d="M8.84246 18.097C8.84246 22.0087 12.0246 25.1909 15.9364 25.1909C19.8481 25.1909 23.0303 22.0057 23.0303 18.097C23.0303 14.1821 19.8481 11 15.9364 11C12.0246 11 8.84246 14.1852 8.84246 18.097ZM11.111 18.097C11.111 15.4329 13.2754 13.2686 15.9364 13.2686C18.5974 13.2686 20.7617 15.4329 20.7617 18.097C20.7617 20.758 18.5974 22.9223 15.9364 22.9223C13.2754 22.9223 11.111 20.758 11.111 18.097Z" fill="#000"/>
<path fill-rule="evenodd" clip-rule="evenodd" d="M10.3048 58.7352C10.3048 61.8407 12.8309 64.3668 15.9364 64.3668C19.0419 64.3668 21.568 61.8407 21.571 58.7352V51.1569H23.7384C24.3669 51.1569 24.8727 50.648 24.8727 50.0226V35.0132C24.8727 30.0837 20.8629 26.0769 15.9364 26.0769C11.0099 26.0769 7 30.0867 7 35.0132V50.0226C7 50.6511 7.5089 51.1569 8.13429 51.1569H10.3048V58.7352ZM11.4391 48.8884H9.26551V35.0132C9.26551 31.3375 12.2576 28.3454 15.9333 28.3454C19.609 28.3454 22.6011 31.3375 22.6011 35.0132V48.8884H20.4337C19.8052 48.8884 19.2994 49.3973 19.2994 50.0226V58.7352C19.2994 60.5899 17.7911 62.0982 15.9364 62.0982C14.0816 62.0982 12.5733 60.5899 12.5733 58.7352V50.0226C12.5733 49.3942 12.0645 48.8884 11.4391 48.8884Z" fill="#000"/>
<path fill-rule="evenodd" clip-rule="evenodd" d="M35.7956 64.3668C33.757 64.3668 32.0954 62.7052 32.0954 60.6666V56.8314H31.3443C30.7189 56.8314 30.21 56.3256 30.21 55.6972V47.1379C30.21 44.06 32.7147 41.5553 35.7926 41.5553C38.8705 41.5553 41.3751 44.06 41.3751 47.1379V55.6972C41.3751 56.3226 40.8693 56.8314 40.2408 56.8314H39.4959V60.6666C39.4959 62.7083 37.8374 64.3668 35.7956 64.3668ZM32.4878 54.5659H33.2328C33.8581 54.5659 34.367 55.0718 34.367 55.7002V60.6696C34.367 61.4606 35.0108 62.1013 35.7987 62.1013C36.5866 62.1013 37.2304 61.4575 37.2304 60.6696V55.7002C37.2304 55.0748 37.7362 54.5659 38.3647 54.5659H39.1157V47.1409C39.1157 45.3138 37.6289 43.827 35.8018 43.827C33.9746 43.827 32.4878 45.3138 32.4878 47.1409V54.5659Z" fill="#000"/>
<path fill-rule="evenodd" clip-rule="evenodd" d="M48.6928 18.097C48.6928 22.0087 51.875 25.1909 55.7867 25.1909C59.6985 25.1909 62.8806 22.0057 62.8806 18.097C62.8806 14.1821 59.6985 11 55.7867 11C51.875 11 48.6928 14.1852 48.6928 18.097ZM50.9614 18.097C50.9614 15.4329 53.1257 13.2686 55.7867 13.2686C58.4477 13.2686 60.6151 15.4329 60.6121 18.097C60.6121 20.758 58.4477 22.9223 55.7867 22.9223C53.1257 22.9223 50.9614 20.758 50.9614 18.097Z" fill="#000"/>
<path fill-rule="evenodd" clip-rule="evenodd" d="M55.7867 64.3668C52.6812 64.3668 50.1551 61.8407 50.1551 58.7352V51.1569H45.7038C45.3451 51.1569 45.0079 50.9883 44.7933 50.7002C44.5787 50.412 44.5143 50.041 44.6155 49.6977L46.8473 42.2175V35.0132C46.8473 30.0867 50.8572 26.0769 55.7837 26.0769C60.7102 26.0769 64.72 30.0837 64.72 35.0132V42.2175L66.9518 49.6977C67.0561 50.041 66.9886 50.412 66.774 50.7002C66.5594 50.9883 66.2222 51.1569 65.8635 51.1569H61.4153V58.7352C61.4214 61.8407 58.8922 64.3668 55.7867 64.3668ZM47.2274 48.8884H51.2894C51.9148 48.8884 52.4237 49.3942 52.4237 50.0226V58.7352C52.4237 60.5899 53.932 62.0982 55.7867 62.0982C57.6415 62.0982 59.1497 60.5899 59.1497 58.7352V50.0226C59.1497 49.3973 59.6556 48.8884 60.284 48.8884H64.346L62.5005 42.708C62.4698 42.6038 62.4515 42.4934 62.4515 42.383V35.0132C62.4515 31.3375 59.4594 28.3454 55.7837 28.3454C52.108 28.3454 49.1159 31.3375 49.1159 35.0132V42.383C49.1159 42.4934 49.1006 42.6038 49.0668 42.708L47.2274 48.8884Z" fill="#000"/>
<path fill-rule="evenodd" clip-rule="evenodd" d="M30.3265 32.7845C30.3265 35.798 32.779 38.2536 35.7956 38.2536C38.8122 38.2536 41.2648 35.798 41.2648 32.7845C41.2648 29.7679 38.8122 27.3154 35.7956 27.3154C32.779 27.3154 30.3265 29.7679 30.3265 32.7845ZM32.5951 32.7845C32.5951 31.0187 34.0298 29.584 35.7956 29.584C37.5615 29.584 38.9992 31.0187 38.9962 32.7845C38.9962 34.5472 37.5615 35.985 35.7956 35.985C34.0298 35.985 32.5951 34.5503 32.5951 32.7845Z" fill="#000"/>
</svg>

