<svg width="75" height="75" viewBox="0 0 75 75" fill="none" xmlns="http://www.w3.org/2000/svg">
<path fill-rule="evenodd" clip-rule="evenodd" d="M37.2737 63.3446C37.3484 63.3578 37.4241 63.3644 37.5 63.3644C37.5358 63.3644 37.5716 63.3629 37.6073 63.3598C48.8055 62.723 57.3129 59.0502 62.8892 52.4515C71.2728 42.5364 69.949 29.7199 69.89 29.1787C69.8259 28.6169 69.4026 28.1628 68.8485 28.0602C65.151 27.3745 61.8183 27.5168 58.9462 28.0677C58.6461 25.4839 57.6052 20.2934 54.0106 16.7367C53.6848 16.4135 53.2102 16.2929 52.7715 16.4109C52.5518 16.4709 48.0509 17.7293 45.0273 21.2199C41.9809 15.2743 38.5302 11.491 38.4364 11.3906C37.9515 10.8698 37.046 10.8698 36.5611 11.3906C36.4673 11.491 33.0164 15.2748 29.97 21.2209C26.9476 17.7335 22.4482 16.476 22.2285 16.4161C21.7924 16.2981 21.3178 16.4212 20.992 16.7419C17.4009 20.2931 16.3586 25.4779 16.0573 28.0648C13.1859 27.5143 9.85257 27.3722 6.15153 28.0576C5.59486 28.1602 5.17157 28.6143 5.11001 29.1761C5.051 29.7174 3.72729 42.5338 12.1083 52.4515C17.644 59.0018 26.0633 62.6662 37.2737 63.3446ZM43.9655 24.5805C48.1422 33.8297 50.2687 47.3765 37.5 60.2809C24.7368 47.3801 26.8776 33.8173 31.0562 24.5625C31.2688 24.3475 31.3956 24.0667 31.422 23.7738C33.5688 19.2638 36.134 15.8709 37.5 14.2201C38.8667 15.8669 41.4286 19.2471 43.5757 23.7415C43.5968 24.055 43.7328 24.3562 43.9655 24.5805ZM46.264 23.8202C48.0939 21.0773 51.31 19.6472 52.733 19.1251C55.464 22.2526 56.2195 26.7056 56.4245 28.6812C52.9941 29.696 50.431 31.205 48.9608 32.2213C48.3496 29.1854 47.3769 26.3552 46.264 23.8202ZM58.025 30.9236C53.2555 32.1479 50.1404 34.4952 49.416 35.0823C50.3287 42.9185 48.5888 51.8543 40.802 60.5176C49.5683 59.4617 56.3654 56.1993 60.9319 50.7942C67.3504 43.1983 67.5248 33.4705 67.4017 30.4203C63.9141 29.9179 60.7981 30.2299 58.1736 30.8859C58.1253 30.9013 58.0757 30.9139 58.025 30.9236ZM22.2644 19.1276C23.6874 19.6521 26.903 21.0799 28.733 23.8221C27.6208 26.3557 26.6487 29.1841 26.0376 32.2179C24.5677 31.2011 22.0062 29.6917 18.5752 28.6772C18.7778 26.7021 19.5265 22.2617 22.2644 19.1276ZM16.9544 30.9242C16.9186 30.9167 16.8834 30.9078 16.8488 30.8974C14.2159 30.2336 11.0902 29.9152 7.59839 30.4203C7.48038 33.4782 7.66509 43.2393 14.0836 50.8148C18.6292 56.1838 25.3811 59.4337 34.1824 60.5033C26.4063 51.8448 24.6691 42.9143 25.5816 35.0821C24.8504 34.4946 21.7207 32.1485 16.9544 30.9242Z" fill="#000"/>
</svg>

