<svg width="75" height="75" viewBox="0 0 75 75" fill="none" xmlns="http://www.w3.org/2000/svg">
<path d="M11.2892 50.9294C11.78 52.647 18.3927 63.3752 33.5189 63.3752C34.2208 63.3752 34.9445 63.3534 35.6869 63.2975C41.4284 62.9224 45.3149 62.1822 47.9435 61.3338C49.0944 62.572 51.038 65.0327 50.9902 66.7669C50.9746 67.4316 51.4933 67.9814 52.158 68H52.1922C52.8413 68 53.3725 67.4844 53.3911 66.8321C53.4571 64.4601 51.6269 61.8997 50.3243 60.386C52.882 59.1165 53.3324 57.8157 53.3911 57.2222C53.4532 56.5637 52.9842 55.9052 52.3257 55.84C51.6362 55.7748 51.0896 56.1879 51.0274 56.8463C51.0207 56.865 50.6293 57.7961 47.9726 58.7888C47.897 58.8082 47.8229 58.8352 47.7515 58.8696C45.5105 59.6718 41.7652 60.499 35.5316 60.9059C19.3835 61.9619 13.6311 50.3641 13.597 50.2678C13.5442 50.0815 13.479 49.9355 13.4168 49.8237C13.5659 48.8235 15.0785 44.2204 18.1255 35.0826C22.4242 22.1864 33.5934 13.8002 38.1934 10.7967C39.1873 10.1476 40.5074 10.3091 41.3398 11.1663L45.3031 15.2663C45.8093 15.7881 46.0547 16.4745 45.9988 17.2013C45.9429 17.9157 45.5826 18.5742 45.008 19.0028L44.157 19.6395C43.1941 20.3632 41.8554 20.2918 40.9702 19.4811L37.7834 16.5584C37.2989 16.1173 36.5379 16.1453 36.0876 16.6329C35.6372 17.1205 35.6714 17.8815 36.159 18.3288L39.3458 21.2484C41.0851 22.8418 43.7128 22.9692 45.595 21.5559L46.4461 20.9192C47.5705 20.0775 48.2786 18.7885 48.3904 17.3877C48.5023 15.9869 48.0053 14.6047 47.0269 13.5952L43.0636 9.49531C41.433 7.81496 38.8364 7.51057 36.8796 8.78714C32.0684 11.9304 20.3836 20.7142 15.8457 34.3247C11.1335 48.4558 10.6945 49.7723 11.1308 50.657C11.1756 50.7479 11.2296 50.8343 11.2892 50.9294Z" fill="#000"/>
<path d="M46.9617 46.8046C46.8219 46.8046 46.6821 46.7798 46.5455 46.7301C45.9243 46.5002 45.6044 45.8107 45.8342 45.1895C45.8868 45.0439 46.4892 43.4827 48.2131 41.7619C42.261 38.29 37.5235 39.051 34.3764 40.5443C34.2636 40.6283 34.1346 40.6933 33.9931 40.7336C31.5472 41.9897 30.1585 43.6323 30.0277 43.7918C29.7886 44.0807 29.4438 44.2298 29.0959 44.2298C28.8288 44.2298 28.5617 44.1428 28.3381 43.9595C27.8256 43.5402 27.7479 42.7886 28.1641 42.2761C28.2005 42.2323 29.6789 40.4606 32.3272 38.9635C31.0281 30.6526 34.6426 21.9031 34.8048 21.5218C35.0595 20.9099 35.7583 20.6241 36.3764 20.8788C36.9883 21.1335 37.274 21.8386 37.0194 22.4505C36.9844 22.535 33.721 30.4525 34.6064 37.8937C38.4166 36.4538 43.7531 36.1121 50.1707 40.1434C52.6306 38.4583 56.3703 37.0021 61.9481 37.0021C62.6128 37.0021 63.1471 37.5394 63.1471 38.201C63.1471 38.8626 62.6097 39.3999 61.9481 39.3999C56.5656 39.3999 53.1709 40.8871 51.0887 42.4516C51.0091 42.5334 50.9197 42.6019 50.8239 42.6565C48.776 44.2879 48.1159 45.9365 48.0839 46.0163L48.0829 46.0188C47.9059 46.5065 47.4493 46.8046 46.9617 46.8046Z" fill="#000"/>
<path d="M30.0992 52.4451C30.2421 52.5135 32.5653 53.5695 36.6156 53.5695C38.6469 53.5695 41.1131 53.3024 43.9457 52.5135C44.5856 52.3333 44.9583 51.6748 44.7813 51.035C44.6073 50.3983 43.952 50.0224 43.3059 50.1995C35.8319 52.2746 31.2923 50.3446 31.1167 50.2699C31.1141 50.2688 31.1124 50.2681 31.1117 50.2678C30.5123 49.9914 29.8041 50.2492 29.5215 50.8486C29.2388 51.4512 29.4997 52.1625 30.0992 52.4451Z" fill="#000"/>
</svg>

