<svg width="75" height="75" viewBox="0 0 75 75" fill="none" xmlns="http://www.w3.org/2000/svg">
<path fill-rule="evenodd" clip-rule="evenodd" d="M22.9334 55.816H20.8948C18.7054 55.816 16.8968 54.1607 16.6505 52.0385C16.0469 52.3655 15.356 52.5514 14.6224 52.5514H12.5838C10.2268 52.5514 8.311 50.6328 8.311 48.2786V42.1626H1.13662C0.508266 42.1626 0 41.6544 0 41.026V34.79C0 34.1616 0.508266 33.6534 1.13662 33.6534H8.311V27.5374C8.311 25.1832 10.2296 23.2646 12.5838 23.2646H14.6224C15.3561 23.2646 16.0469 23.4505 16.6506 23.7775C16.8972 21.6553 18.708 20 20.8948 20H22.9334C25.2904 20 27.2062 21.9186 27.2062 24.2728V33.6534H47.791V24.2728C47.791 21.9186 49.7095 20 52.0638 20H54.1024C56.2925 20 58.1016 21.6564 58.3469 23.7796C58.9514 23.4513 59.6433 23.2646 60.3776 23.2646H62.4162C64.7733 23.2646 66.689 25.1832 66.689 27.5374V33.6534H73.8634C74.4917 33.6534 75 34.1616 75 34.79V41.0232C75 41.6544 74.4917 42.1626 73.8634 42.1626H66.689V48.2786C66.689 50.6328 64.7705 52.5514 62.4162 52.5514H60.3776C59.6431 52.5514 58.9515 52.3651 58.3473 52.0373C58.1035 54.1601 56.2922 55.816 54.1024 55.816H52.0638C49.7068 55.816 47.791 53.8974 47.791 51.5432V42.1626H27.2062V51.5432C27.2062 53.8974 25.2904 55.816 22.9334 55.816ZM24.9358 41.029V51.5432C24.9358 52.6463 24.0393 53.5428 22.9362 53.5428H20.8976C19.7945 53.5428 18.898 52.6463 18.898 51.5432V24.2728C18.898 23.1697 19.7945 22.2732 20.8976 22.2732H22.9362C24.0393 22.2732 24.9358 23.1697 24.9358 24.2728V34.787L24.9358 34.79V41.026L24.9358 41.029ZM27.2062 39.8894H47.791V35.9266H27.2062V39.8894ZM50.067 51.5432C50.067 52.6463 50.9635 53.5428 52.0666 53.5428H54.1052C55.2083 53.5428 56.1048 52.6463 56.1048 51.5432V24.2728C56.1048 23.1697 55.2083 22.2732 54.1052 22.2732H52.0666C50.9635 22.2732 50.067 23.1697 50.067 24.2728V51.5432ZM16.622 27.5291C16.6175 26.4298 15.7228 25.5379 14.6224 25.5379H12.5838C11.4807 25.5379 10.5842 26.4343 10.5842 27.5374V48.2786C10.5842 49.3817 11.4807 50.2782 12.5838 50.2782H14.6224C15.7228 50.2782 16.6175 49.3862 16.622 48.287V27.5291ZM72.7296 39.8894H66.689V35.9266H72.7296V39.8894ZM64.4158 27.5374V34.7827L64.4158 34.79V41.026L64.4158 41.0333V48.2786C64.4158 49.3817 63.5193 50.2782 62.4162 50.2782H60.3776C59.2745 50.2782 58.378 49.3817 58.378 48.2786V27.5374C58.378 26.4343 59.2745 25.5379 60.3776 25.5379H62.4162C63.5193 25.5379 64.4158 26.4343 64.4158 27.5374ZM8.31099 39.8894H2.27324V35.9266H8.31099V39.8894Z" fill="#000"/>
</svg>

