<svg width="75" height="75" viewBox="0 0 75 75" fill="none" xmlns="http://www.w3.org/2000/svg">
<path fill-rule="evenodd" clip-rule="evenodd" d="M24.8861 12.3688C20.9857 12.3753 17.7915 15.5733 17.7915 19.4752V26.9725H44.867V19.4752C44.867 14.2734 49.1081 10.02 54.3054 10.0001L54.3185 10H54.3422L54.3553 10.0001C59.5526 10.02 63.7937 14.2734 63.7937 19.4752C63.7937 20.1293 63.2634 20.6596 62.6093 20.6596C61.9552 20.6596 61.4249 20.1293 61.4249 19.4752C61.4249 15.5733 58.2308 12.3753 54.3303 12.3688C50.4299 12.3753 47.2358 15.5733 47.2358 19.4752V58.7855C47.2358 59.4397 46.7055 59.9699 46.0514 59.9699C45.3972 59.9699 44.867 59.4397 44.867 58.7855V54.4388H17.7915V58.7855C17.7915 59.4397 17.2613 59.9699 16.6071 59.9699C15.953 59.9699 15.4227 59.4397 15.4227 58.7855V19.4752C15.4227 14.2734 19.6639 10.02 24.8612 10.0001L24.8743 10H24.8979L24.911 10.0001C30.1083 10.02 34.3495 14.2734 34.3495 19.4752C34.3495 20.1293 33.8192 20.6596 33.1651 20.6596C32.5109 20.6596 31.9807 20.1293 31.9807 19.4752C31.9807 15.5733 28.7865 12.3753 24.8861 12.3688ZM17.7915 29.3413V35.3344H44.867V29.3413H17.7915ZM17.7915 43.7081V37.7032H44.867V43.7081H17.7915ZM17.7915 46.0769V52.07H44.867V46.0769H17.7915Z" fill="#000"/>
<path d="M5 59.4251C5 58.771 5.53027 58.2407 6.1844 58.2407C7.9125 58.2407 9.25491 58.57 10.3938 59.0868C11.4941 59.5861 12.3666 60.2465 13.1306 60.8248L13.1632 60.8495C13.9568 61.4501 14.64 61.9623 15.4803 62.3442C16.2975 62.7156 17.3022 62.9783 18.7035 62.9783C20.1082 62.9783 21.1153 62.7154 21.9343 62.3439C22.7762 61.9619 23.4606 61.4496 24.2547 60.8492L24.2892 60.8231C25.0533 60.2452 25.9256 59.5856 27.025 59.0868C28.164 58.57 29.5064 58.2407 31.2345 58.2407C32.9626 58.2407 34.305 58.57 35.4439 59.0868C36.5442 59.5861 37.4167 60.2465 38.1807 60.8248L38.2133 60.8495C39.0069 61.4501 39.6901 61.9623 40.5304 62.3442C41.3476 62.7156 42.3523 62.9783 43.7536 62.9783C45.1583 62.9783 46.1655 62.7154 46.9844 62.3439C47.8263 61.9619 48.5107 61.4496 49.3048 60.8492L49.3394 60.823C50.1034 60.2452 50.9757 59.5856 52.0751 59.0868C53.2141 58.57 54.5565 58.2407 56.2846 58.2407C58.0127 58.2407 59.3551 58.57 60.4941 59.0868C61.5936 59.5856 62.4659 60.2453 63.2299 60.8231L63.2645 60.8492C64.0585 61.4496 64.7429 61.9619 65.5848 62.3439C66.4038 62.7154 67.411 62.9783 68.8156 62.9783C69.4697 62.9783 70 63.5086 70 64.1627C70 64.8168 69.4697 65.3471 68.8156 65.3471C67.0875 65.3471 65.7451 65.0178 64.6061 64.5011C63.5066 64.0022 62.6344 63.3426 61.8703 62.7648L61.8358 62.7386C61.0417 62.1382 60.3573 61.6259 59.5154 61.2439C58.6964 60.8724 57.6893 60.6095 56.2846 60.6095C54.88 60.6095 53.8728 60.8724 53.0538 61.2439C52.2119 61.6259 51.5276 62.1382 50.7335 62.7386L50.6989 62.7648C49.9349 63.3426 49.0626 64.0023 47.9631 64.5011C46.8241 65.0178 45.4818 65.3471 43.7536 65.3471C42.0281 65.3471 40.6878 65.0176 39.5503 64.5007C38.4535 64.0023 37.5829 63.3432 36.8203 62.766L36.7837 62.7383C35.9906 62.138 35.3066 61.6258 34.465 61.2439C33.6463 60.8724 32.6392 60.6095 31.2345 60.6095C29.8299 60.6095 28.8227 60.8724 28.0037 61.2439C27.1618 61.6259 26.4774 62.1382 25.6834 62.7386L25.6488 62.7648C24.8848 63.3426 24.0125 64.0022 22.913 64.5011C21.774 65.0178 20.4316 65.3471 18.7035 65.3471C16.978 65.3471 15.6376 65.0176 14.5002 64.5007C13.4034 64.0023 12.5328 63.3432 11.7702 62.766L11.7336 62.7383C10.9405 62.138 10.2565 61.6258 9.41493 61.2439C8.5962 60.8724 7.58905 60.6095 6.1844 60.6095C5.53027 60.6095 5 60.0792 5 59.4251Z" fill="#000"/>
</svg>

