<svg width="75" height="75" viewBox="0 0 75 75" fill="none" xmlns="http://www.w3.org/2000/svg">
<path fill-rule="evenodd" clip-rule="evenodd" d="M28.1546 56.7604C28.1546 57.4223 28.6917 57.9595 29.3537 57.9595C30.0156 57.9595 30.5528 57.4223 30.5528 56.7604V41.5462H39.9058C46.3873 41.5462 51.657 36.2733 51.657 29.7949C51.657 23.3166 46.3873 18.0437 39.9058 18.0437H29.3537C28.6917 18.0437 28.1546 18.5809 28.1546 19.2428V56.7604ZM39.9058 39.1447H30.5528V20.4419H39.9058C45.0603 20.4419 49.2588 24.634 49.2588 29.7917C49.2588 34.9495 45.0603 39.1447 39.9058 39.1447Z" fill="#000"/>
<path fill-rule="evenodd" clip-rule="evenodd" d="M8 38C8 54.5413 21.4588 68 38 68C54.5413 68 68 54.5413 68 38C68 21.4588 54.5413 8 38 8C21.4588 8 8 21.4588 8 38ZM10.4014 38C10.4014 22.7826 22.7826 10.4014 38 10.4014C53.2174 10.4014 65.5986 22.7794 65.5986 38C65.5986 53.2174 53.2174 65.5986 38 65.5986C22.7826 65.5986 10.4014 53.2174 10.4014 38Z" fill="#000"/>
</svg>

